<?xml version="1.0" standalone="no"?><svg xmlns="http://www.w3.org/2000/svg" viewBox="0 0 1440 320"><path fill="#0099ff" fill-opacity="1" d="M0,64L30,80C60,96,120,128,180,122.7C240,117,300,75,360,85.3C420,96,480,160,540,170.7C600,181,660,139,720,106.7C780,75,840,53,900,42.7C960,32,1020,32,1080,74.7C1140,117,1200,203,1260,240C1320,277,1380,267,1410,261.3L1440,256L1440,320L1410,320C1380,320,1320,320,1260,320C1200,320,1140,320,1080,320C1020,320,960,320,900,320C840,320,780,320,720,320C660,320,600,320,540,320C480,320,420,320,360,320C300,320,240,320,180,320C120,320,60,320,30,320L0,320Z"></path></svg>