<?xml version="1.0" standalone="no"?><svg xmlns="http://www.w3.org/2000/svg" viewBox="0 0 1440 320"><path fill="#0099ff" fill-opacity="1" d="M0,160L30,138.7C60,117,120,75,180,90.7C240,107,300,181,360,181.3C420,181,480,107,540,101.3C600,96,660,160,720,192C780,224,840,224,900,229.3C960,235,1020,245,1080,245.3C1140,245,1200,235,1260,213.3C1320,192,1380,160,1410,144L1440,128L1440,0L1410,0C1380,0,1320,0,1260,0C1200,0,1140,0,1080,0C1020,0,960,0,900,0C840,0,780,0,720,0C660,0,600,0,540,0C480,0,420,0,360,0C300,0,240,0,180,0C120,0,60,0,30,0L0,0Z"></path></svg>